<?xml version="1.0" encoding="UTF-8"?>
<svg width="800px" height="800px" viewBox="0 0 64 64" xmlns="http://www.w3.org/2000/svg" xmlns:xlink="http://www.w3.org/1999/xlink" aria-hidden="true" role="img" class="iconify iconify--emojione" preserveAspectRatio="xMidYMid meet">
  <path d="M40.2 12.8c-.5-.2-1.1-.2-1.6 0c-2.5 1-5.4-.1-6.5-2.5c-.2-.5-.5-.9-.9-1.2c-2-1.7-5-1.5-6.7.5c-.3.4-.6.9-.7 1.4c-.7 2.6-3.3 4.1-5.9 3.4c-.5-.1-1.1-.1-1.6.1c-2.5.9-3.8 3.6-2.9 6.1c.2.5.4.9.6 1.3c1.4 2.3.7 5.3-1.6 6.7c-.4.3-.8.6-1.1 1c-1.4 2.3-.8 5.2 1.4 6.6c.4.3.9.5 1.4.6c2.6.6 4.1 3.3 3.4 5.9c-.1.5-.1 1.1.1 1.6c.9 2.5 3.6 3.8 6.1 2.9c.5-.2.9-.4 1.3-.6c2.3-1.4 5.3-.7 6.7 1.6c.3.4.6.8 1 1.1c2.3 1.4 5.2.8 6.6-1.4c.3-.4.5-.9.6-1.4c.6-2.6 3.3-4.1 5.9-3.4c.5.1 1 .1 1.6-.1c2.5-.9 3.8-3.6 2.9-6.1c-.2-.5-.4-.9-.6-1.3c-1.4-2.3-.7-5.3 1.6-6.7c.4-.3.8-.6 1.1-1c1.4-2.3.8-5.2-1.4-6.6c-.4-.3-.9-.5-1.4-.6c-2.6-.6-4.1-3.3-3.4-5.9c.1-.5.1-1.1-.1-1.6c-.8-2.5-3.5-3.8-6-2.9z" fill="#ffffff"></path>
  <path d="M28.7 32.9c-1-.6-1.9-1.4-2.5-2.4c-2.1-3.6-.9-8.1 2.7-10.2c3.6-2.1 8.1-.9 10.2 2.7c1.4 2.4 1.6 5.6-.2 8.5c-.4.8-1.2 1.9-1.6 1.2l-2.7-4.7c-.3-.5-1-.8-1.6-.5c-.5.3-.8 1-.5 1.6l2.7 4.7c.4.7-.4 1-1.2 1.2c-1.9.6-3.7.1-5.3-2.1z" fill="#ffffff"></path>
</svg> 